<?xml version="1.0" standalone="no"?>
<svg style="background: null" xmlns="http://www.w3.org/2000/svg" xmlns:xlink="http://www.w3.org/1999/xlink" version="1.1" width="411px" height="861px" viewBox="-0.5 -0.5 411 861"><defs><style>* {margin: 0px; padding: 0px;}</style><clipPath id="mx-clip-4-486-152-26-0"><rect x="4" y="486" width="152" height="26"/></clipPath><clipPath id="mx-clip-4-512-152-26-0"><rect x="4" y="512" width="152" height="26"/></clipPath><clipPath id="mx-clip-4-538-152-26-0"><rect x="4" y="538" width="152" height="26"/></clipPath><clipPath id="mx-clip-4-572-152-26-0"><rect x="4" y="572" width="152" height="26"/></clipPath><clipPath id="mx-clip-254-32-152-26-0"><rect x="254" y="32" width="152" height="26"/></clipPath><clipPath id="mx-clip-254-66-152-26-0"><rect x="254" y="66" width="152" height="26"/></clipPath><clipPath id="mx-clip-254-92-152-26-0"><rect x="254" y="92" width="152" height="26"/></clipPath><clipPath id="mx-clip-254-182-152-26-0"><rect x="254" y="182" width="152" height="26"/></clipPath><clipPath id="mx-clip-254-216-152-26-0"><rect x="254" y="216" width="152" height="26"/></clipPath><clipPath id="mx-clip-254-242-152-26-0"><rect x="254" y="242" width="152" height="26"/></clipPath><clipPath id="mx-clip-254-328-152-26-0"><rect x="254" y="328" width="152" height="26"/></clipPath><clipPath id="mx-clip-254-362-152-26-0"><rect x="254" y="362" width="152" height="26"/></clipPath><clipPath id="mx-clip-254-388-152-26-0"><rect x="254" y="388" width="152" height="26"/></clipPath><clipPath id="mx-clip-254-482-152-26-0"><rect x="254" y="482" width="152" height="26"/></clipPath><clipPath id="mx-clip-254-516-152-26-0"><rect x="254" y="516" width="152" height="26"/></clipPath><clipPath id="mx-clip-254-542-152-26-0"><rect x="254" y="542" width="152" height="26"/></clipPath><clipPath id="mx-clip-254-634-152-26-0"><rect x="254" y="634" width="152" height="26"/></clipPath><clipPath id="mx-clip-254-668-152-26-0"><rect x="254" y="668" width="152" height="26"/></clipPath><clipPath id="mx-clip-254-694-152-26-0"><rect x="254" y="694" width="152" height="26"/></clipPath><clipPath id="mx-clip-254-777-152-26-0"><rect x="254" y="777" width="152" height="26"/></clipPath><clipPath id="mx-clip-254-811-152-26-0"><rect x="254" y="811" width="152" height="26"/></clipPath><clipPath id="mx-clip-254-837-152-26-0"><rect x="254" y="837" width="152" height="26"/></clipPath></defs><g><path d="M 0 480.5 L 0 454.5 L 160 454.5 L 160 480.5" fill="#ffffff" stroke="#000000" stroke-miterlimit="10" pointer-events="none"/><path d="M 0 480.5 L 0 592.5 L 160 592.5 L 160 480.5" fill="none" stroke="#000000" stroke-miterlimit="10" pointer-events="none"/><path d="M 0 480.5 L 160 480.5" fill="none" stroke="#000000" stroke-miterlimit="10" pointer-events="none"/><g fill="#000000" font-family="Helvetica" font-weight="bold" text-anchor="middle" font-size="12px"><text x="78.91" y="472">Piece</text></g><g fill="#000000" font-family="Helvetica" clip-path="url(#mx-clip-4-486-152-26-0)" font-size="12px"><text x="5.5" y="498">fields</text></g><g fill="#000000" font-family="Helvetica" clip-path="url(#mx-clip-4-512-152-26-0)" font-size="12px"><text x="5.5" y="524">fields</text></g><g fill="#000000" font-family="Helvetica" clip-path="url(#mx-clip-4-538-152-26-0)" font-size="12px"><text x="5.5" y="550">fields</text></g><path d="M 0 562.5 L 160 562.5" fill="none" stroke="#000000" stroke-miterlimit="10" pointer-events="none"/><g fill="#000000" font-family="Helvetica" clip-path="url(#mx-clip-4-572-152-26-0)" font-size="12px"><text x="5.5" y="584">methods</text></g><path d="M 250 26.5 L 250 0.5 L 410 0.5 L 410 26.5" fill="#ffffff" stroke="#000000" stroke-miterlimit="10" pointer-events="none"/><path d="M 250 26.5 L 250 112.5 L 410 112.5 L 410 26.5" fill="none" stroke="#000000" stroke-miterlimit="10" pointer-events="none"/><path d="M 250 26.5 L 410 26.5" fill="none" stroke="#000000" stroke-miterlimit="10" pointer-events="none"/><g fill="#000000" font-family="Helvetica" font-weight="bold" text-anchor="middle" font-size="12px"><text x="328.91" y="18">King</text></g><g fill="#000000" font-family="Helvetica" clip-path="url(#mx-clip-254-32-152-26-0)" font-size="12px"><text x="255.5" y="44">additional fields</text></g><path d="M 250 56.5 L 410 56.5" fill="none" stroke="#000000" stroke-miterlimit="10" pointer-events="none"/><g fill="#000000" font-family="Helvetica" clip-path="url(#mx-clip-254-66-152-26-0)" font-size="12px"><text x="255.5" y="78">additional methods</text></g><g fill="#000000" font-family="Helvetica" clip-path="url(#mx-clip-254-92-152-26-0)" font-size="12px"><text x="255.5" y="104">method overrides</text></g><path d="M 162 465.5 L 190 465.5 Q 200 465.5 200 455.5 L 200 23.5 Q 200 13.5 210 13.5 L 232.01 13.5" fill="none" stroke="#000000" stroke-miterlimit="10" pointer-events="none"/><path d="M 245.01 13.5 L 238.51 17.32 L 232.01 13.5 L 238.51 9.68 Z" fill="#000000" stroke="#000000" stroke-miterlimit="10" pointer-events="none"/><path d="M 250 176.5 L 250 150.5 L 410 150.5 L 410 176.5" fill="#ffffff" stroke="#000000" stroke-miterlimit="10" pointer-events="none"/><path d="M 250 176.5 L 250 262.5 L 410 262.5 L 410 176.5" fill="none" stroke="#000000" stroke-miterlimit="10" pointer-events="none"/><path d="M 250 176.5 L 410 176.5" fill="none" stroke="#000000" stroke-miterlimit="10" pointer-events="none"/><g fill="#000000" font-family="Helvetica" font-weight="bold" text-anchor="middle" font-size="12px"><text x="328.91" y="168">Queen</text></g><g fill="#000000" font-family="Helvetica" clip-path="url(#mx-clip-254-182-152-26-0)" font-size="12px"><text x="255.5" y="194">additional fields</text></g><path d="M 250 206.5 L 410 206.5" fill="none" stroke="#000000" stroke-miterlimit="10" pointer-events="none"/><g fill="#000000" font-family="Helvetica" clip-path="url(#mx-clip-254-216-152-26-0)" font-size="12px"><text x="255.5" y="228">additional methods</text></g><g fill="#000000" font-family="Helvetica" clip-path="url(#mx-clip-254-242-152-26-0)" font-size="12px"><text x="255.5" y="254">method overrides</text></g><path d="M 161 465.5 L 190 465.5 Q 200 465.5 200 455.5 L 200 173.5 Q 200 163.5 210 163.5 L 232.01 163.5" fill="none" stroke="#000000" stroke-miterlimit="10" pointer-events="none"/><path d="M 245.01 163.5 L 238.51 167.32 L 232.01 163.5 L 238.51 159.68 Z" fill="#000000" stroke="#000000" stroke-miterlimit="10" pointer-events="none"/><path d="M 250 322.5 L 250 296.5 L 410 296.5 L 410 322.5" fill="#ffffff" stroke="#000000" stroke-miterlimit="10" pointer-events="none"/><path d="M 250 322.5 L 250 408.5 L 410 408.5 L 410 322.5" fill="none" stroke="#000000" stroke-miterlimit="10" pointer-events="none"/><path d="M 250 322.5 L 410 322.5" fill="none" stroke="#000000" stroke-miterlimit="10" pointer-events="none"/><g fill="#000000" font-family="Helvetica" font-weight="bold" text-anchor="middle" font-size="12px"><text x="328.91" y="314">Bishop</text></g><g fill="#000000" font-family="Helvetica" clip-path="url(#mx-clip-254-328-152-26-0)" font-size="12px"><text x="255.5" y="340">additional fields</text></g><path d="M 250 352.5 L 410 352.5" fill="none" stroke="#000000" stroke-miterlimit="10" pointer-events="none"/><g fill="#000000" font-family="Helvetica" clip-path="url(#mx-clip-254-362-152-26-0)" font-size="12px"><text x="255.5" y="374">additional methods</text></g><g fill="#000000" font-family="Helvetica" clip-path="url(#mx-clip-254-388-152-26-0)" font-size="12px"><text x="255.5" y="400">method overrides</text></g><path d="M 162 465.5 L 190 465.5 Q 200 465.5 200 455.5 L 200 319.5 Q 200 309.5 210 309.5 L 232.01 309.5" fill="none" stroke="#000000" stroke-miterlimit="10" pointer-events="none"/><path d="M 245.01 309.5 L 238.51 313.32 L 232.01 309.5 L 238.51 305.68 Z" fill="#000000" stroke="#000000" stroke-miterlimit="10" pointer-events="none"/><path d="M 250 476.5 L 250 450.5 L 410 450.5 L 410 476.5" fill="#ffffff" stroke="#000000" stroke-miterlimit="10" pointer-events="none"/><path d="M 250 476.5 L 250 562.5 L 410 562.5 L 410 476.5" fill="none" stroke="#000000" stroke-miterlimit="10" pointer-events="none"/><path d="M 250 476.5 L 410 476.5" fill="none" stroke="#000000" stroke-miterlimit="10" pointer-events="none"/><g fill="#000000" font-family="Helvetica" font-weight="bold" text-anchor="middle" font-size="12px"><text x="328.91" y="468">Knight</text></g><g fill="#000000" font-family="Helvetica" clip-path="url(#mx-clip-254-482-152-26-0)" font-size="12px"><text x="255.5" y="494">additional fields</text></g><path d="M 250 506.5 L 410 506.5" fill="none" stroke="#000000" stroke-miterlimit="10" pointer-events="none"/><g fill="#000000" font-family="Helvetica" clip-path="url(#mx-clip-254-516-152-26-0)" font-size="12px"><text x="255.5" y="528">additional methods</text></g><g fill="#000000" font-family="Helvetica" clip-path="url(#mx-clip-254-542-152-26-0)" font-size="12px"><text x="255.5" y="554">method overrides</text></g><path d="M 162 465.5 L 180 465.5 Q 190 465.5 195 464.5 L 197.5 464 Q 200 463.5 210 463.5 L 232.01 463.5" fill="none" stroke="#000000" stroke-miterlimit="10" pointer-events="none"/><path d="M 245.01 463.5 L 238.51 467.32 L 232.01 463.5 L 238.51 459.68 Z" fill="#000000" stroke="#000000" stroke-miterlimit="10" pointer-events="none"/><path d="M 250 628.5 L 250 602.5 L 410 602.5 L 410 628.5" fill="#ffffff" stroke="#000000" stroke-miterlimit="10" pointer-events="none"/><path d="M 250 628.5 L 250 714.5 L 410 714.5 L 410 628.5" fill="none" stroke="#000000" stroke-miterlimit="10" pointer-events="none"/><path d="M 250 628.5 L 410 628.5" fill="none" stroke="#000000" stroke-miterlimit="10" pointer-events="none"/><g fill="#000000" font-family="Helvetica" font-weight="bold" text-anchor="middle" font-size="12px"><text x="328.91" y="620">Rook</text></g><g fill="#000000" font-family="Helvetica" clip-path="url(#mx-clip-254-634-152-26-0)" font-size="12px"><text x="255.5" y="646">additional fields</text></g><path d="M 250 658.5 L 410 658.5" fill="none" stroke="#000000" stroke-miterlimit="10" pointer-events="none"/><g fill="#000000" font-family="Helvetica" clip-path="url(#mx-clip-254-668-152-26-0)" font-size="12px"><text x="255.5" y="680">additional methods</text></g><g fill="#000000" font-family="Helvetica" clip-path="url(#mx-clip-254-694-152-26-0)" font-size="12px"><text x="255.5" y="706">method overrides</text></g><path d="M 162 465.5 L 190 465.5 Q 200 465.5 200 475.5 L 200 605.5 Q 200 615.5 210 615.5 L 232.01 615.5" fill="none" stroke="#000000" stroke-miterlimit="10" pointer-events="none"/><path d="M 245.01 615.5 L 238.51 619.32 L 232.01 615.5 L 238.51 611.68 Z" fill="#000000" stroke="#000000" stroke-miterlimit="10" pointer-events="none"/><path d="M 250 771.5 L 250 745.5 L 410 745.5 L 410 771.5" fill="#ffffff" stroke="#000000" stroke-miterlimit="10" pointer-events="none"/><path d="M 250 771.5 L 250 857.5 L 410 857.5 L 410 771.5" fill="none" stroke="#000000" stroke-miterlimit="10" pointer-events="none"/><path d="M 250 771.5 L 410 771.5" fill="none" stroke="#000000" stroke-miterlimit="10" pointer-events="none"/><g fill="#000000" font-family="Helvetica" font-weight="bold" text-anchor="middle" font-size="12px"><text x="328.91" y="763">Pawn</text></g><g fill="#000000" font-family="Helvetica" clip-path="url(#mx-clip-254-777-152-26-0)" font-size="12px"><text x="255.5" y="789">additional fields</text></g><path d="M 250 801.5 L 410 801.5" fill="none" stroke="#000000" stroke-miterlimit="10" pointer-events="none"/><g fill="#000000" font-family="Helvetica" clip-path="url(#mx-clip-254-811-152-26-0)" font-size="12px"><text x="255.5" y="823">additional methods</text></g><g fill="#000000" font-family="Helvetica" clip-path="url(#mx-clip-254-837-152-26-0)" font-size="12px"><text x="255.5" y="849">method overrides</text></g><path d="M 161.76 465.95 L 190 465.62 Q 200 465.5 200 475.5 L 200 748.5 Q 200 758.5 210 758.5 L 232.01 758.5" fill="none" stroke="#000000" stroke-miterlimit="10" pointer-events="none"/><path d="M 245.01 758.5 L 238.51 762.32 L 232.01 758.5 L 238.51 754.68 Z" fill="#000000" stroke="#000000" stroke-miterlimit="10" pointer-events="none"/></g></svg>